<svg width="24" height="24" xmlns="http://www.w3.org/2000/svg"><defs><linearGradient x1="41.745%" y1="83.433%" x2="61.136%" y2="4.902%" id="a"><stop stop-color="#47304D" offset="19.2%"/><stop stop-color="#93279F" offset="100%"/></linearGradient><linearGradient x1="38.515%" y1="96.335%" x2="65.493%" y2="-1.525%" id="b"><stop stop-color="#47304D" offset="19.2%"/><stop stop-color="#93279F" offset="100%"/></linearGradient><linearGradient x1="31.352%" y1="124.311%" x2="75.985%" y2="-39.518%" id="c"><stop stop-color="#47304D" offset="19.2%"/><stop stop-color="#93279F" offset="100%"/></linearGradient></defs><g fill-rule="nonzero" fill="none"><path d="M12 0C5.4 0 0 5.4 0 12s5.4 12 12 12 12-5.4 12-12S18.6 0 12 0m0 22.425A10.403 10.403 0 011.575 12C1.575 6.225 6.225 1.575 12 1.575S22.425 6.225 22.425 12 17.775 22.425 12 22.425" fill="url(#a)"/><path d="M12 3.375c-4.725 0-8.625 3.9-8.625 8.625 0 2.775 1.275 5.175 3.3 6.825.225-.45.525-.9.825-1.275-1.575-1.275-2.625-3.3-2.625-5.475 0-3.9 3.15-7.125 7.125-7.125a7.074 7.074 0 017.125 7.125c0 2.175-.975 4.2-2.625 5.475.3.375.6.825.825 1.275a8.567 8.567 0 003.3-6.75c0-4.8-3.9-8.7-8.625-8.7" fill="url(#b)"/><path d="M12 6.75c-2.85 0-5.25 2.325-5.25 5.25 0 1.725.825 3.225 2.1 4.2.525-.375 1.05-.6 1.65-.825-1.275-.6-2.25-1.875-2.25-3.375a3.681 3.681 0 013.675-3.675A3.681 3.681 0 0115.6 12c0 1.5-.9 2.775-2.175 3.375.6.15 1.125.45 1.65.825 1.275-.975 2.1-2.475 2.1-4.2C17.25 9.15 14.85 6.75 12 6.75" fill="url(#c)"/></g></svg>