<?xml version="1.0" encoding="UTF-8"?>
<svg width="17px" height="24px" viewBox="0 0 17 24" version="1.1" xmlns="http://www.w3.org/2000/svg" xmlns:xlink="http://www.w3.org/1999/xlink">
    <defs>
        <linearGradient x1="35.4977188%" y1="92.0435146%" x2="72.3613281%" y2="-5.49067511%" id="myappsLinearGradient-1">
            <stop stop-color="#003C4A" offset="0%"></stop>
            <stop stop-color="#0096B4" offset="100%"></stop>
            <stop stop-color="#0096B4" offset="100%"></stop>
        </linearGradient>
    </defs>
    <g id="V3" stroke="none" stroke-width="1" fill="none" fill-rule="evenodd">
        <g id="Inloco---Product-switcher" transform="translate(-1167.000000, -209.000000)">
            <g id="myapps-logo-32" transform="translate(1167.000000, 209.000000)">
                <g id="Group">
                    <path d="M14.775,24 L1.725,24 C0.9,24 0.225,23.325 0.225,22.5 L0.225,1.5 C0.225,0.675 0.9,0 1.725,0 L14.775,0 C15.6,0 16.275,0.675 16.275,1.5 L16.275,22.5 C16.275,23.325 15.6,24 14.775,24 Z" id="Path" fill="url(#myappsLinearGradient-1)" fill-rule="nonzero"></path>
                    <g transform="translate(3.000000, 9.000000)" fill="#C4E9F5" id="Path">
                        <g transform="translate(3.000000, 0.000000)">
                            <path d="M3.75,1.5 L1.725,5.1 C1.5,5.25 1.2,5.4 0.975,5.25 C0.75,5.1 0.6,4.8 0.75,4.5 L2.775,0.9 C2.925,0.675 3.225,0.6 3.45,0.675 C3.675,0.75 3.9,1.2 3.75,1.5 Z"></path>
                            <path d="M7.125,2.775 C7.125,2.7 7.05,2.625 6.975,2.625 L5.7,1.35 C5.475,1.125 5.175,1.125 4.95,1.35 C4.725,1.575 4.725,1.875 4.95,2.1 L5.925,3.075 L4.95,4.05 C4.725,4.275 4.725,4.575 4.95,4.8 C5.175,5.025 5.475,5.025 5.7,4.8 L6.975,3.525 C7.2,3.225 7.2,3 7.125,2.775 Z"></path>
                        </g>
                        <path d="M1.575,3 L2.55,2.025 C2.775,1.8 2.775,1.5 2.55,1.275 C2.325,1.05 2.025,1.05 1.8,1.275 L0.525,2.55 C0.45,2.625 0.45,2.7 0.375,2.7 C0.3,2.85 0.3,3.075 0.45,3.225 L1.725,4.5 C1.95,4.725 2.25,4.725 2.475,4.5 C2.7,4.275 2.7,3.975 2.475,3.75 L1.575,3 Z"></path>
                    </g>
                </g>
            </g>
        </g>
    </g>
</svg>