<svg width="17" height="24" xmlns="http://www.w3.org/2000/svg"><defs><linearGradient x1="35.498%" y1="92.044%" x2="72.361%" y2="-5.491%" id="a"><stop stop-color="#003C4A" offset="0%"/><stop stop-color="#0096B4" offset="100%"/><stop stop-color="#0096B4" offset="100%"/></linearGradient></defs><g fill="none" fill-rule="evenodd"><path d="M14.775 24H1.725c-.825 0-1.5-.675-1.5-1.5v-21C.225.675.9 0 1.725 0h13.05c.825 0 1.5.675 1.5 1.5v21c0 .825-.675 1.5-1.5 1.5z" fill="url(#a)" fill-rule="nonzero"/><g fill="#C4E9F5"><path d="M9.75 10.5l-2.025 3.6c-.225.15-.525.3-.75.15-.225-.15-.375-.45-.225-.75l2.025-3.6c.15-.225.45-.3.675-.225.225.075.45.525.3.825zM13.125 11.775a.161.161 0 00-.15-.15L11.7 10.35c-.225-.225-.525-.225-.75 0-.225.225-.225.525 0 .75l.975.975-.975.975c-.225.225-.225.525 0 .75.225.225.525.225.75 0l1.275-1.275c.225-.3.225-.525.15-.75zM4.575 12l.975-.975c.225-.225.225-.525 0-.75-.225-.225-.525-.225-.75 0L3.525 11.55c-.075.075-.075.15-.15.15a.462.462 0 00.075.525L4.725 13.5c.225.225.525.225.75 0 .225-.225.225-.525 0-.75l-.9-.75z"/></g></g></svg>